<svg width="24" height="22" viewBox="0 0 24 22" fill="none" xmlns="http://www.w3.org/2000/svg">
<path d="M6.74991 9.25005C6.74991 8.42161 7.42148 7.75004 8.24992 7.75004C8.39424 7.75004 8.63994 7.81134 8.98427 7.97571C9.31399 8.1331 9.67141 8.35425 10.0197 8.59848C10.335 8.81962 10.6288 9.04968 10.8708 9.25004C10.6288 9.45041 10.335 9.68047 10.0197 9.90161C9.67141 10.1458 9.31399 10.367 8.98427 10.5244C8.63994 10.6888 8.39424 10.7501 8.24992 10.7501C7.42148 10.7501 6.74991 10.0785 6.74991 9.25005Z" fill="#F20057"/>
<path d="M13.9802 9.90161C13.6648 9.68047 13.3711 9.45041 13.1291 9.25004C13.3711 9.04968 13.6648 8.81962 13.9802 8.59848C14.3285 8.35425 14.6859 8.1331 15.0156 7.97571C15.3599 7.81134 15.6056 7.75004 15.75 7.75004C16.5784 7.75004 17.25 8.42161 17.25 9.25005C17.25 10.0785 16.5784 10.7501 15.75 10.7501C15.6056 10.7501 15.3599 10.6888 15.0156 10.5244C14.6859 10.367 14.3285 10.1458 13.9802 9.90161Z" fill="#F20057"/>
<path fill-rule="evenodd" clip-rule="evenodd" d="M13.0755 20.7905L22.1295 11.4291C24.7599 8.71168 24.6149 4.21794 21.7016 1.69652C19.1575 -0.505441 15.2644 -0.108127 12.9231 2.30899L12.0003 3.26169L11.0774 2.30899C8.73606 -0.108174 4.84284 -0.505441 2.29868 1.69666C-0.614376 4.21813 -0.759361 8.71178 1.86664 11.4291L10.9206 20.7905C11.5132 21.4033 12.4829 21.4033 13.0755 20.7905ZM10.8809 7.37035C11.3062 7.66855 11.6977 7.98192 11.9999 8.23962C12.3022 7.98192 12.6937 7.66855 13.119 7.37035C13.506 7.09895 13.9381 6.82791 14.3694 6.62202C14.7861 6.42311 15.273 6.25003 15.75 6.25003C17.4068 6.25003 18.75 7.59318 18.75 9.25005C18.75 10.9069 17.4068 12.2501 15.75 12.2501C15.273 12.2501 14.7861 12.077 14.3694 11.8781C13.9381 11.6722 13.506 11.4011 13.119 11.1297C12.6937 10.8315 12.3022 10.5182 11.9999 10.2605C11.6977 10.5182 11.3062 10.8315 10.8809 11.1297C10.4939 11.4011 10.0618 11.6722 9.63046 11.8781C9.21377 12.077 8.72692 12.2501 8.24992 12.2501C6.59305 12.2501 5.2499 10.9069 5.2499 9.25005C5.2499 7.59318 6.59305 6.25003 8.24992 6.25003C8.72692 6.25003 9.21377 6.42311 9.63046 6.62202C10.0618 6.82791 10.4939 7.09895 10.8809 7.37035Z" fill="#F20057"/>
</svg>
