<svg width="40" height="40" viewBox="0 0 40 40" fill="none" xmlns="http://www.w3.org/2000/svg">
<path fill-rule="evenodd" clip-rule="evenodd" d="M7.08659 31.3645C6.44518 31.4397 5.90175 30.8963 5.97695 30.2549L6.49997 25.7938C6.55237 25.3469 6.75396 24.9307 7.07216 24.6125L21.6788 10.0058L27.3357 15.6627L12.3605 30.6378C12.281 30.7174 12.177 30.7677 12.0652 30.7808L7.08659 31.3645ZM11.0841 28.3787L23.8001 15.6627L21.6788 13.5414L8.96274 26.2574L8.681 28.6605L11.0841 28.3787Z" fill="#8252DD"/>
<path d="M31.5014 26.0058H21.1849L24.1849 23.0058H31.5014C31.7775 23.0058 32.0014 23.2297 32.0014 23.5058V25.5058C32.0014 25.782 31.7775 26.0058 31.5014 26.0058Z" fill="#8252DD"/>
<path d="M31.5014 32.0058H15.1849L18.1849 29.0058H31.5014C31.7775 29.0058 32.0014 29.2297 32.0014 29.5058V31.5058C32.0014 31.782 31.7775 32.0058 31.5014 32.0058Z" fill="#8252DD"/>
<path d="M28.75 14.1982L23.0932 8.54133L25.9216 5.71291C26.3121 5.32238 26.9453 5.32238 27.3358 5.71291L31.5785 9.95555C31.969 10.3461 31.969 10.9792 31.5785 11.3698L28.75 14.1982Z" fill="#8252DD"/>
</svg>
