<svg width="40" height="40" viewBox="0 0 40 40" fill="none" xmlns="http://www.w3.org/2000/svg">
<path d="M24 4H32V14.5444C32 14.9585 31.5255 15.1931 31.1965 14.9418L28 12.5L24.8035 14.9418C24.4745 15.1931 24 14.9585 24 14.5444V4Z" fill="#149EF2"/>
<path d="M11 33V7H21V4H9C8.44772 4 8 4.44772 8 5V35C8 35.5523 8.44772 36 9 36H31C31.5523 36 32 35.5523 32 35V18H29V33H11Z" fill="#149EF2"/>
<path d="M14 20.5C14 20.2239 14.2239 20 14.5 20H25.5C25.7761 20 26 20.2239 26 20.5V22.5C26 22.7761 25.7761 23 25.5 23H14.5C14.2239 23 14 22.7761 14 22.5V20.5Z" fill="#149EF2"/>
<path d="M14 26.5C14 26.2239 14.2239 26 14.5 26H22.5C22.7761 26 23 26.2239 23 26.5V28.5C23 28.7761 22.7761 29 22.5 29H14.5C14.2239 29 14 28.7761 14 28.5V26.5Z" fill="#149EF2"/>
</svg>
