<svg width="40" height="40" viewBox="0 0 40 40" fill="none" xmlns="http://www.w3.org/2000/svg">
<path d="M25.4873 11.9414C25.6908 12.1306 26.0092 12.1329 26.2057 11.9364L27.6192 10.5228C27.8135 10.3286 27.8153 10.0132 27.6156 9.82448C25.1076 7.45368 21.7236 6 18 6C10.268 6 4 12.268 4 20C4 27.732 10.268 34 18 34C21.6487 34 24.9714 32.6042 27.4633 30.3174C27.6678 30.1297 27.6683 29.8105 27.4721 29.6142L26.0571 28.1993C25.8631 28.0053 25.5497 28.0048 25.3456 28.1881C23.398 29.9364 20.8232 31 18 31C11.9249 31 7 26.0751 7 20C7 13.9249 11.9249 9 18 9C20.8922 9 23.5238 10.1162 25.4873 11.9414Z" fill="#F20057"/>
<path d="M23.2273 25.3695C23.4243 25.5665 23.4233 25.8878 23.212 26.0694C21.812 27.2727 19.9909 28 18 28C13.5817 28 10 24.4183 10 20C10 15.5817 13.5817 12 18 12C20.0677 12 21.9521 12.7844 23.372 14.0719C23.5748 14.2558 23.5718 14.5703 23.3783 14.7638L21.9666 16.1755C21.7685 16.3736 21.4479 16.3682 21.2344 16.1869C20.3625 15.4466 19.2334 15 18 15C15.2386 15 13 17.2386 13 20C13 22.7614 15.2386 25 18 25C19.1684 25 20.2431 24.5993 21.0943 23.9277C21.3081 23.7591 21.6178 23.76 21.8103 23.9525L23.2273 25.3695Z" fill="#F20057"/>
<path d="M35.0688 23.7334L31.9999 20L35.0698 16.2619C35.4183 15.7392 35.0796 15.0068 34.4514 15L31.4759 15.0001C31.2658 14.9978 31.0633 15.0793 30.9133 15.2265L27.576 18.5H19.3231C18.9706 18.1888 18.5074 18 18.0001 18C16.8956 18 16.0001 18.8954 16.0001 20C16.0001 21.1045 16.8956 22 18.0001 22C18.5073 22 18.9704 21.8112 19.323 21.5H27.6306L30.8942 24.7636C31.0446 24.9141 31.2494 24.9976 31.4622 24.9953L34.4188 24.9953C35.0471 24.9886 35.4173 24.2562 35.0688 23.7334Z" fill="#F20057"/>
</svg>
