<svg width="40" height="41" viewBox="0 0 40 41" fill="none" xmlns="http://www.w3.org/2000/svg">
<g clip-path="url(#clip0_924_5137)">
<path d="M18.5128 31.182C17.4278 31.182 17.0015 30.8333 17.0015 29.6707C17.0015 26.0669 18.6678 24.5556 20.4504 23.4319C22.4654 22.1918 24.5967 21.4168 24.5967 18.6655C24.5967 16.9217 23.3954 15.6817 20.8766 15.6817C18.2803 15.6817 17.1178 16.8055 16.1878 18.898C15.684 20.0606 15.2578 20.2931 14.1727 19.9056L11.5377 18.9368C10.4527 18.5493 10.1427 18.0068 10.5689 16.9217C12.0802 13.0467 15.219 10.4116 20.9541 10.4116C27.193 10.4116 30.7968 13.9379 30.7968 18.433C30.7968 24.3231 26.6117 25.6794 24.1704 27.1907C23.0854 27.8495 22.3104 28.5857 22.3104 29.6707C22.3104 30.8333 21.9229 31.182 20.7991 31.182H18.5128ZM19.3266 39.3584C17.1178 39.3584 16.3815 38.6609 16.3815 36.4521V35.7546C16.3815 33.5458 17.1178 32.8483 19.3266 32.8483H20.1016C22.3104 32.8483 23.0467 33.5458 23.0467 35.7546V36.4521C23.0467 38.6609 22.3104 39.3584 20.1016 39.3584H19.3266Z" fill="#8252DD"/>
<path d="M21.687 10.6306C21.8246 8.85258 20.4948 7.29965 18.7168 7.16202C16.9388 7.02439 15.3858 8.35419 15.2482 10.1322C15.1106 11.9102 16.4404 13.4631 18.2184 13.6008C19.9964 13.7384 21.5493 12.4086 21.687 10.6306Z" fill="white"/>
<path d="M25.5263 11.5924C26.5782 10.1523 26.2635 8.1322 24.8234 7.08031C23.3834 6.02842 21.3632 6.3431 20.3114 7.78316C19.2595 9.22322 19.5741 11.2433 21.0142 12.2952C22.4543 13.3471 24.4744 13.0325 25.5263 11.5924Z" fill="white"/>
<path d="M24.9632 4.72786L21.4941 4.56252C21.1543 4.54633 20.8658 4.80864 20.8496 5.1484L20.818 5.8108C20.8018 6.15057 21.0641 6.43913 21.4039 6.45532L24.873 6.62066C25.2127 6.63685 25.5013 6.37455 25.5175 6.03478L25.5491 5.37238C25.5653 5.03262 25.303 4.74406 24.9632 4.72786Z" fill="#000A23"/>
<path d="M18.6527 2.85041L15.5402 4.3913C15.2354 4.54221 15.1106 4.91167 15.2615 5.21651L15.5558 5.81082C15.7067 6.11566 16.0761 6.24044 16.381 6.08952L19.4935 4.54864C19.7983 4.39772 19.9231 4.02826 19.7722 3.72342L19.4779 3.12911C19.327 2.82427 18.9576 2.69949 18.6527 2.85041Z" fill="#000A23"/>
<path d="M20.713 11.1904C20.7194 10.1793 19.9051 9.35451 18.894 9.34804C17.883 9.34158 17.0582 10.1559 17.0517 11.167C17.0453 12.178 17.8596 13.0028 18.8706 13.0093C19.8817 13.0157 20.7065 12.2014 20.713 11.1904Z" fill="#000A23"/>
<path d="M24.0852 11.6239C24.6715 10.8213 24.4961 9.69539 23.6935 9.10913C22.8909 8.52286 21.765 8.69825 21.1787 9.50085C20.5924 10.3035 20.7678 11.4294 21.5704 12.0156C22.373 12.6019 23.4989 12.4265 24.0852 11.6239Z" fill="#000A23"/>
<path d="M21.4972 15.2468C22.079 15.1561 22.5242 14.7274 22.664 14.1918C22.7457 13.8784 22.4333 13.6505 22.1133 13.7003L20.44 13.961C20.1199 14.0108 19.8916 14.323 20.0649 14.5967C20.3609 15.0644 20.9154 15.3374 21.4972 15.2468Z" fill="#27292C"/>
</g>
<defs>
<clipPath id="clip0_924_5137">
<rect width="40" height="40" fill="white" transform="translate(0 0.5)"/>
</clipPath>
</defs>
</svg>
